<svg width="24" height="24" viewBox="0 0 24 24" fill="none" xmlns="http://www.w3.org/2000/svg">
<path d="M13.917 20.8646H10.0837V22.3021H13.917V20.8646ZM3.13574 13.9167V10.0833H1.69824V13.9167H3.13574ZM20.8649 13.4978V13.9167H22.3024V13.4978H20.8649ZM14.7711 4.919L18.5649 8.33344L19.5265 7.26495L15.7327 3.85051L14.7711 4.919ZM22.3024 13.4978C22.3024 11.8797 22.3169 10.8553 21.9086 9.9386L20.5955 10.5234C20.8504 11.0958 20.8649 11.7528 20.8649 13.4978H22.3024ZM18.5649 8.33344C19.8619 9.50077 20.3406 9.95108 20.5955 10.5234L21.9086 9.9386C21.5004 9.0219 20.7292 8.34735 19.5265 7.26495L18.5649 8.33344ZM10.1122 3.13542C11.6281 3.13542 12.2001 3.14652 12.71 3.34217L13.225 2.00009C12.4087 1.68683 11.5192 1.69792 10.1122 1.69792V3.13542ZM15.7327 3.85051C14.692 2.91384 14.0413 2.31331 13.225 2.00009L12.71 3.34217C13.22 3.53786 13.6501 3.9101 14.7711 4.919L15.7327 3.85051ZM10.0837 20.8646C8.25629 20.8646 6.95807 20.8631 5.97322 20.7306C5.00905 20.601 4.45356 20.3579 4.04798 19.9524L3.03151 20.9689C3.7487 21.686 4.6581 22.0042 5.78168 22.1554C6.88457 22.3036 8.29692 22.3021 10.0837 22.3021V20.8646ZM1.69824 13.9167C1.69824 15.7034 1.69672 17.1158 1.84499 18.2186C1.99605 19.3422 2.31434 20.2516 3.03151 20.9689L4.04798 19.9524C3.6424 19.5468 3.3993 18.9912 3.26968 18.0272C3.13727 17.0423 3.13574 15.744 3.13574 13.9167H1.69824ZM13.917 22.3021C15.7037 22.3021 17.1161 22.3036 18.219 22.1554C19.3425 22.0042 20.252 21.686 20.9692 20.9689L19.9527 19.9524C19.5471 20.3579 18.9916 20.601 18.0275 20.7306C17.0426 20.8631 15.7443 20.8646 13.917 20.8646V22.3021ZM20.8649 13.9167C20.8649 15.744 20.8634 17.0423 20.7309 18.0272C20.6014 18.9912 20.3582 19.5468 19.9527 19.9524L20.9692 20.9689C21.6863 20.2516 22.0046 19.3422 22.1557 18.2186C22.3039 17.1158 22.3024 15.7034 22.3024 13.9167H20.8649ZM3.13574 10.0833C3.13574 8.25597 3.13727 6.95775 3.26968 5.97291C3.3993 5.00874 3.6424 4.45324 4.04798 4.04766L3.03151 3.0312C2.31434 3.74838 1.99605 4.65779 1.84499 5.78136C1.69672 6.88425 1.69824 8.2966 1.69824 10.0833H3.13574ZM10.1122 1.69792C8.3159 1.69792 6.89665 1.69641 5.78924 1.84462C4.66172 1.99553 3.74926 2.31346 3.03151 3.0312L4.04798 4.04766C4.453 3.64265 5.0102 3.39921 5.97993 3.26942C6.96979 3.13694 8.27539 3.13542 10.1122 3.13542V1.69792Z" fill="#2534D7"/>
<path d="M12.958 2.89584V5.29168C12.958 7.55049 12.958 8.67989 13.6597 9.38162C14.3615 10.0833 15.4909 10.0833 17.7497 10.0833H21.583" stroke="#2534D7"/>
<path d="M8.64616 18.2292V13.4375M8.64616 13.4375L6.72949 15.2344M8.64616 13.4375L10.5628 15.2344" stroke="#2534D7" stroke-linecap="round" stroke-linejoin="round"/>
</svg>
