<svg width="20" height="24" viewBox="0 0 20 24" fill="none" xmlns="http://www.w3.org/2000/svg">
<path d="M18.147 18L10 21.178L1.853 18L0.5 20.343L10 24L19.5 20.343L18.147 18ZM10 0C7.48044 0 5.06408 1.00089 3.28249 2.78249C1.50089 4.56408 0.5 6.98044 0.5 9.5C0.5 12.0196 1.50089 14.4359 3.28249 16.2175C5.06408 17.9991 7.48044 19 10 19C12.5196 19 14.9359 17.9991 16.7175 16.2175C18.4991 14.4359 19.5 12.0196 19.5 9.5C19.5 6.98044 18.4991 4.56408 16.7175 2.78249C14.9359 1.00089 12.5196 0 10 0ZM10 16.078C8.25806 16.078 6.58746 15.386 5.35572 14.1543C4.12398 12.9225 3.432 11.2519 3.432 9.51C3.432 7.76806 4.12398 6.09746 5.35572 4.86572C6.58746 3.63398 8.25806 2.942 10 2.942C11.7419 2.942 13.4125 3.63398 14.6443 4.86572C15.876 6.09746 16.568 7.76806 16.568 9.51C16.568 11.2519 15.876 12.9225 14.6443 14.1543C13.4125 15.386 11.7419 16.078 10 16.078Z" fill="#2534D7"/>
</svg>
