<svg width="19" height="19" viewBox="0 0 19 19" fill="none" xmlns="http://www.w3.org/2000/svg">
<path fill-rule="evenodd" clip-rule="evenodd" d="M6.61607 1.1875C6.31812 1.1875 6.04203 1.34383 5.88874 1.59931L4.1001 4.58036H2.20536C1.62046 4.58036 1.05952 4.81271 0.645933 5.22629C0.23235 5.63988 0 6.20081 0 6.78571V15.6071C0 16.1921 0.23235 16.753 0.645933 17.1665C1.05952 17.5802 1.62046 17.8125 2.20536 17.8125H16.7946C17.3796 17.8125 17.9405 17.5802 18.354 17.1665C18.7677 16.753 19 16.1921 19 15.6071V6.78571C19 6.20081 18.7677 5.63988 18.354 5.22629C17.9405 4.81271 17.3796 4.58036 16.7946 4.58036H14.8999L13.1113 1.59931C12.958 1.34383 12.6819 1.1875 12.3839 1.1875H6.61607ZM5.30769 5.86497L7.09632 2.88393H11.9037L13.6923 5.86497C13.8456 6.12046 14.1217 6.27679 14.4196 6.27679H16.7946C16.9297 6.27679 17.059 6.33041 17.1546 6.42585C17.25 6.52129 17.3036 6.65073 17.3036 6.78571V15.6071C17.3036 15.7422 17.25 15.8715 17.1546 15.9671C17.059 16.0625 16.9297 16.1161 16.7946 16.1161H2.20536C2.07038 16.1161 1.94093 16.0625 1.84548 15.9671C1.75005 15.8715 1.69643 15.7422 1.69643 15.6071V6.78571C1.69643 6.65073 1.75005 6.52129 1.84548 6.42585C1.94093 6.33041 2.07038 6.27679 2.20536 6.27679H4.58036C4.8783 6.27679 5.1544 6.12046 5.30769 5.86497ZM12.8929 10.5603C12.8929 12.4341 11.3738 13.9531 9.5 13.9531C7.62618 13.9531 6.10714 12.4341 6.10714 10.5603C6.10714 8.68645 7.62618 7.16741 9.5 7.16741C11.3738 7.16741 12.8929 8.68645 12.8929 10.5603Z" fill="black"/>
</svg>
