<svg width="19" height="19" viewBox="0 0 19 19" fill="none" xmlns="http://www.w3.org/2000/svg">
<g clip-path="url(#clip0_365_784)">
<path d="M10.6875 15.4375H15.4375V16.625H10.6875V15.4375Z" fill="black"/>
<path d="M10.6875 13.0625H17.8125V14.25H10.6875V13.0625Z" fill="black"/>
<path d="M10.6875 10.6875H17.8125V11.875H10.6875V10.6875Z" fill="black"/>
<path d="M12.2007 6.66009L9.49977 1.1875L6.7988 6.66009L0.759766 7.53766L5.12977 11.7978L4.09783 17.8125L8.31227 15.5972V14.2553L5.67542 15.6418L6.30005 11.9985L6.40573 11.3828L5.95864 10.9476L3.3117 8.36653L6.9698 7.83512L7.5873 7.74547L7.86398 7.18556L9.49977 3.87066L11.1355 7.18556L11.4122 7.74547L12.0297 7.83512L16.4555 8.47934L16.6248 7.30312L12.2007 6.66009Z" fill="black"/>
</g>
<defs>
<clipPath id="clip0_365_784">
<rect width="19" height="19" fill="white"/>
</clipPath>
</defs>
</svg>
