<svg width="75" height="49" viewBox="0 0 75 49" fill="none" xmlns="http://www.w3.org/2000/svg">
<path d="M39.1562 41.6908H19.4063C9.53125 41.6908 6.25 37.4033 6.25 33.0954V15.9046C6.25 9.45292 9.53125 7.30917 19.4063 7.30917H39.1562C49.0312 7.30917 52.3125 9.45292 52.3125 15.9046V33.0954C52.3125 39.5471 49 41.6908 39.1562 41.6908Z" stroke="white" stroke-width="3" stroke-linecap="round" stroke-linejoin="round"/>
<path d="M61 34.9125L52.3125 30.9312V18.0483L61 14.0671C65.25 12.1275 68.75 13.3117 68.75 16.7212V32.2787C68.75 35.6883 65.25 36.8725 61 34.9125Z" stroke="white" stroke-width="3" stroke-linecap="round" stroke-linejoin="round"/>
<path d="M35.9375 22.4583C38.5263 22.4583 40.625 21.0872 40.625 19.3958C40.625 17.7045 38.5263 16.3333 35.9375 16.3333C33.3487 16.3333 31.25 17.7045 31.25 19.3958C31.25 21.0872 33.3487 22.4583 35.9375 22.4583Z" stroke="white" stroke-width="3" stroke-linecap="round" stroke-linejoin="round"/>
</svg>
