<svg width="40" height="45" viewBox="0 0 40 45" fill="none" xmlns="http://www.w3.org/2000/svg">
<g clip-path="url(#clip0_458_879)">
<path d="M22.5442 5.48356C22.3043 5.01534 21.9399 4.6224 21.491 4.34801C21.0421 4.07362 20.5262 3.92844 20.0002 3.92844C19.4741 3.92844 18.9582 4.07362 18.5093 4.34801C18.0604 4.6224 17.696 5.01534 17.4561 5.48356L1.73449 36.9268C1.51522 37.3619 1.41082 37.8458 1.43122 38.3329C1.45161 38.8197 1.59612 39.293 1.85101 39.7084C2.10591 40.1237 2.46274 40.467 2.88761 40.7054C3.31247 40.9441 3.79126 41.0702 4.27855 41.0716H35.7217C36.2091 41.0702 36.6879 40.9441 37.1126 40.7054C37.5377 40.467 37.8944 40.1237 38.1494 39.7084C38.4041 39.293 38.5487 38.8197 38.569 38.3329C38.5896 37.8458 38.485 37.3619 38.2657 36.9268L22.5442 5.48356Z" stroke="#BF7300" stroke-width="4" stroke-linecap="round" stroke-linejoin="round"/>
<path d="M20 16.0716V26.518" stroke="#BF7300" stroke-linecap="round" stroke-linejoin="round"/>
<path d="M20.0004 35.3574C19.6059 35.3574 19.2861 34.9977 19.2861 34.5538C19.2861 34.1099 19.6059 33.7502 20.0004 33.7502" stroke="#BF7300" stroke-linecap="round" stroke-linejoin="round"/>
<path d="M20 35.3574C20.3945 35.3574 20.7143 34.9977 20.7143 34.5538C20.7143 34.1099 20.3945 33.7502 20 33.7502" stroke="#BF7300" stroke-linecap="round" stroke-linejoin="round"/>
</g>
<defs>
<clipPath id="clip0_458_879">
<rect width="40" height="45" fill="white"/>
</clipPath>
</defs>
</svg>
